<svg width="18" height="18" viewBox="0 0 18 18" fill="none" xmlns="http://www.w3.org/2000/svg">
<path d="M13.45 3.54996C13.2522 3.54996 13.0589 3.60861 12.8944 3.71849C12.73 3.82837 12.6018 3.98455 12.5261 4.16728C12.4504 4.35 12.4306 4.55107 12.4692 4.74505C12.5078 4.93903 12.603 5.11721 12.7429 5.25707C12.8827 5.39692 13.0609 5.49216 13.2549 5.53074C13.4489 5.56933 13.65 5.54953 13.8327 5.47384C14.0154 5.39815 14.1716 5.26998 14.2815 5.10553C14.3913 4.94108 14.45 4.74774 14.45 4.54996C14.45 4.28474 14.3446 4.03039 14.1571 3.84285C13.9696 3.65532 13.7152 3.54996 13.45 3.54996V3.54996ZM17.2833 5.56663C17.2671 4.87521 17.1376 4.19113 16.9 3.54163C16.6881 2.9859 16.3583 2.48269 15.9333 2.06663C15.5207 1.63948 15.0163 1.31177 14.4583 1.10829C13.8105 0.863427 13.1257 0.730968 12.4333 0.716626C11.55 0.666626 11.2667 0.666626 9 0.666626C6.73333 0.666626 6.45 0.666626 5.56666 0.716626C4.87429 0.730968 4.18945 0.863427 3.54166 1.10829C2.98473 1.31383 2.48078 1.64126 2.06666 2.06663C1.63952 2.47927 1.31181 2.98366 1.10833 3.54163C0.863465 4.18941 0.731006 4.87425 0.716664 5.56663C0.666664 6.44996 0.666664 6.73329 0.666664 8.99996C0.666664 11.2666 0.666664 11.55 0.716664 12.4333C0.731006 13.1257 0.863465 13.8105 1.10833 14.4583C1.31181 15.0163 1.63952 15.5206 2.06666 15.9333C2.48078 16.3587 2.98473 16.6861 3.54166 16.8916C4.18945 17.1365 4.87429 17.269 5.56666 17.2833C6.45 17.3333 6.73333 17.3333 9 17.3333C11.2667 17.3333 11.55 17.3333 12.4333 17.2833C13.1257 17.269 13.8105 17.1365 14.4583 16.8916C15.0163 16.6881 15.5207 16.3604 15.9333 15.9333C16.3602 15.5188 16.6903 15.0151 16.9 14.4583C17.1376 13.8088 17.2671 13.1247 17.2833 12.4333C17.2833 11.55 17.3333 11.2666 17.3333 8.99996C17.3333 6.73329 17.3333 6.44996 17.2833 5.56663V5.56663ZM15.7833 12.3333C15.7773 12.8623 15.6815 13.3864 15.5 13.8833C15.3669 14.246 15.1532 14.5736 14.875 14.8416C14.6047 15.117 14.2777 15.3303 13.9167 15.4666C13.4197 15.6481 12.8956 15.7439 12.3667 15.75C11.5333 15.7916 11.225 15.8 9.03333 15.8C6.84166 15.8 6.53333 15.8 5.7 15.75C5.15074 15.7602 4.60383 15.6757 4.08333 15.5C3.73815 15.3567 3.42613 15.1439 3.16666 14.875C2.89007 14.6072 2.67903 14.2793 2.55 13.9166C2.34654 13.4126 2.2337 12.8766 2.21666 12.3333C2.21666 11.5 2.16666 11.1916 2.16666 8.99996C2.16666 6.80829 2.16666 6.49996 2.21666 5.66663C2.2204 5.12584 2.31912 4.58991 2.50833 4.08329C2.65504 3.73155 2.88022 3.41801 3.16666 3.16663C3.41984 2.8801 3.73274 2.65254 4.08333 2.49996C4.59129 2.31666 5.12666 2.22086 5.66666 2.21663C6.5 2.21663 6.80833 2.16663 9 2.16663C11.1917 2.16663 11.5 2.16663 12.3333 2.21663C12.8623 2.22269 13.3864 2.3185 13.8833 2.49996C14.262 2.6405 14.6019 2.869 14.875 3.16663C15.1481 3.42261 15.3615 3.73557 15.5 4.08329C15.6852 4.59074 15.7811 5.12644 15.7833 5.66663C15.825 6.49996 15.8333 6.80829 15.8333 8.99996C15.8333 11.1916 15.825 11.5 15.7833 12.3333ZM9 4.72496C8.15484 4.72661 7.32913 4.97873 6.62721 5.44947C5.92529 5.92022 5.37865 6.58846 5.05636 7.36975C4.73407 8.15105 4.6506 9.01035 4.81649 9.83907C4.98238 10.6678 5.39019 11.4287 5.98839 12.0258C6.58659 12.6228 7.34834 13.0291 8.17738 13.1934C9.00642 13.3577 9.86555 13.2725 10.6462 12.9487C11.4269 12.6249 12.0941 12.077 12.5634 11.3742C13.0328 10.6713 13.2833 9.84512 13.2833 8.99996C13.2844 8.43755 13.1743 7.88047 12.9594 7.36076C12.7444 6.84105 12.4288 6.36897 12.0307 5.97167C11.6326 5.57437 11.16 5.25969 10.6398 5.04573C10.1197 4.83178 9.56241 4.72276 9 4.72496V4.72496ZM9 11.775C8.45115 11.775 7.91464 11.6122 7.45829 11.3073C7.00194 11.0024 6.64627 10.569 6.43623 10.0619C6.2262 9.55484 6.17124 8.99688 6.27832 8.45858C6.38539 7.92029 6.64969 7.42583 7.03778 7.03774C7.42587 6.64965 7.92033 6.38535 8.45862 6.27828C8.99692 6.17121 9.55488 6.22616 10.0619 6.43619C10.569 6.64623 11.0024 7.00191 11.3073 7.45825C11.6122 7.9146 11.775 8.45112 11.775 8.99996C11.775 9.36438 11.7032 9.72523 11.5638 10.0619C11.4243 10.3986 11.2199 10.7045 10.9622 10.9622C10.7045 11.2199 10.3986 11.4243 10.0619 11.5637C9.72527 11.7032 9.36442 11.775 9 11.775V11.775Z" fill="#556987"/>
</svg>
